<svg width="40" height="40" viewBox="0 0 40 40" fill="none" xmlns="http://www.w3.org/2000/svg">
<path d="M3.33333 9.99998V33.3333H33.3333V36.6666H3.33333C1.49167 36.6666 0 35.1833 0 33.3333V9.99998H3.33333ZM40 6.66665C40 4.83331 38.5 3.33331 36.6667 3.33331H10C8.16667 3.33331 6.66667 4.83331 6.66667 6.66665V26.6666C6.66667 28.5 8.16667 30 10 30H36.6667C38.5 30 40 28.5 40 26.6666V6.66665ZM36.6667 6.66665L23.3333 15L10 6.66665H36.6667ZM36.6667 26.6666H10V9.99998L23.3333 18.3333L36.6667 9.99998V26.6666Z" fill="#CBC7BA"/>
</svg>
