<svg width="32" height="33" viewBox="0 0 32 33" fill="none" xmlns="http://www.w3.org/2000/svg">
<g id="instagram" clip-path="url(#clip0_22_190)">
<path id="Vector" d="M16 0.705566C11.6533 0.705566 11.1107 0.725598 9.404 0.801717C7.7 0.881842 6.54 1.15026 5.52 1.54688C4.468 1.95552 3.57467 2.50438 2.68533 3.3951C1.796 4.28583 1.24667 5.17923 0.84 6.2342C0.444 7.2558 0.174667 8.41762 0.096 10.1243C0.016 11.8337 0 12.3771 0 16.7306C0 21.0841 0.02 21.6276 0.096 23.3369C0.176 25.0423 0.444 26.2054 0.84 27.227C1.248 28.2793 1.796 29.1753 2.68533 30.0661C3.57467 30.9555 4.46667 31.507 5.52 31.9143C6.54133 32.3096 7.70133 32.5807 9.404 32.6595C11.1107 32.7396 11.6533 32.7556 16 32.7556C20.3467 32.7556 20.8893 32.7356 22.596 32.6595C24.2987 32.5794 25.46 32.3096 26.48 31.9143C27.5307 31.5057 28.4253 30.9555 29.3147 30.0661C30.2027 29.1753 30.7533 28.2834 31.16 27.227C31.5547 26.2054 31.8253 25.0423 31.904 23.3369C31.984 21.6276 32 21.0841 32 16.7306C32 12.3771 31.98 11.8337 31.904 10.1243C31.824 8.41895 31.5547 7.25447 31.16 6.2342C30.752 5.18056 30.2027 4.28583 29.3147 3.3951C28.4253 2.50438 27.5347 1.95419 26.48 1.54688C25.46 1.15026 24.2987 0.880507 22.596 0.801717C20.8893 0.721591 20.3467 0.705566 16 0.705566ZM16 3.59007C20.2707 3.59007 20.78 3.61144 22.4667 3.68489C24.0267 3.75834 24.8733 4.01741 25.436 4.23909C26.1853 4.52887 26.716 4.87608 27.2787 5.43563C27.8373 5.9965 28.184 6.52934 28.4733 7.27984C28.692 7.84339 28.9533 8.69137 29.024 10.2538C29.1 11.9444 29.1173 12.4519 29.1173 16.7306C29.1173 21.0093 29.0973 21.5181 29.0187 23.2074C28.9373 24.7699 28.6773 25.6178 28.4573 26.1814C28.1587 26.9318 27.8187 27.4634 27.2587 28.027C26.7 28.5864 26.16 28.9337 25.4187 29.2234C24.8587 29.4425 23.9987 29.7042 22.4387 29.775C20.74 29.8511 20.24 29.8684 15.96 29.8684C11.6787 29.8684 11.1787 29.8484 9.48133 29.7697C7.92 29.6881 7.06 29.4277 6.5 29.2074C5.74133 28.9083 5.22 28.5678 4.66133 28.0069C4.1 27.4473 3.74133 26.9065 3.46133 26.164C3.24133 25.6032 2.98267 24.7418 2.90133 23.1794C2.84133 21.4967 2.82 20.9772 2.82 16.7106C2.82 12.4426 2.84133 11.9218 2.90133 10.2191C2.98267 8.65666 3.24133 7.79664 3.46133 7.23577C3.74133 6.47458 4.1 5.95377 4.66133 5.39156C5.22 4.83201 5.74133 4.47145 6.5 4.19234C7.06 3.97067 7.90133 3.71026 9.46133 3.63014C11.1613 3.57004 11.6613 3.55001 15.94 3.55001L16 3.59007ZM16 8.50175C11.46 8.50175 7.784 12.1875 7.784 16.7306C7.784 21.2777 11.464 24.9595 16 24.9595C20.54 24.9595 24.216 21.2737 24.216 16.7306C24.216 12.1835 20.536 8.50175 16 8.50175ZM16 22.0722C13.0533 22.0722 10.6667 19.6819 10.6667 16.7306C10.6667 13.7793 13.0533 11.389 16 11.389C18.9467 11.389 21.3333 13.7793 21.3333 16.7306C21.3333 19.6819 18.9467 22.0722 16 22.0722ZM26.4613 8.17724C26.4613 9.2389 25.6 10.1002 24.5413 10.1002C23.4813 10.1002 22.6213 9.23757 22.6213 8.17724C22.6213 7.11691 23.4827 6.25557 24.5413 6.25557C25.5987 6.25423 26.4613 7.11691 26.4613 8.17724Z" fill="white"/>
</g>
<defs>
<clipPath id="clip0_22_190">
<rect width="32" height="32.0501" fill="white" transform="translate(0 0.705566)"/>
</clipPath>
</defs>
</svg>
