<svg width="32" height="33" viewBox="0 0 32 33" fill="none" xmlns="http://www.w3.org/2000/svg">
<g clip-path="url(#clip0_284_38)">
<path d="M16 0C11.6533 0 11.1107 0.0200313 9.404 0.0961502C7.7 0.176275 6.54 0.444695 5.52 0.841314C4.468 1.24995 3.57467 1.79881 2.68533 2.68953C1.796 3.58026 1.24667 4.47366 0.84 5.52864C0.444 6.55023 0.174667 7.71205 0.096 9.41872C0.016 11.1281 0 11.6715 0 16.025C0 20.3785 0.02 20.922 0.096 22.6314C0.176 24.3367 0.444 25.4998 0.84 26.5214C1.248 27.5738 1.796 28.4698 2.68533 29.3606C3.57467 30.25 4.46667 30.8014 5.52 31.2088C6.54133 31.6041 7.70133 31.8751 9.404 31.9539C11.1107 32.034 11.6533 32.0501 16 32.0501C20.3467 32.0501 20.8893 32.03 22.596 31.9539C24.2987 31.8738 25.46 31.6041 26.48 31.2088C27.5307 30.8001 28.4253 30.25 29.3147 29.3606C30.2027 28.4698 30.7533 27.5778 31.16 26.5214C31.5547 25.4998 31.8253 24.3367 31.904 22.6314C31.984 20.922 32 20.3785 32 16.025C32 11.6715 31.98 11.1281 31.904 9.41872C31.824 7.71338 31.5547 6.5489 31.16 5.52864C30.752 4.47499 30.2027 3.58026 29.3147 2.68953C28.4253 1.79881 27.5347 1.24862 26.48 0.841314C25.46 0.444695 24.2987 0.17494 22.596 0.0961502C20.8893 0.016025 20.3467 0 16 0ZM16 2.88451C20.2707 2.88451 20.78 2.90587 22.4667 2.97932C24.0267 3.05277 24.8733 3.31184 25.436 3.53352C26.1853 3.8233 26.716 4.17052 27.2787 4.73006C27.8373 5.29094 28.184 5.82377 28.4733 6.57427C28.692 7.13782 28.9533 7.98581 29.024 9.54825C29.1 11.2389 29.1173 11.7464 29.1173 16.025C29.1173 20.3037 29.0973 20.8125 29.0187 22.5019C28.9373 24.0643 28.6773 24.9122 28.4573 25.4758C28.1587 26.2263 27.8187 26.7578 27.2587 27.3214C26.7 27.8809 26.16 28.2281 25.4187 28.5179C24.8587 28.7369 23.9987 28.9986 22.4387 29.0694C20.74 29.1455 20.24 29.1629 15.96 29.1629C11.6787 29.1629 11.1787 29.1428 9.48133 29.0641C7.92 28.9826 7.06 28.7222 6.5 28.5018C5.74133 28.2028 5.22 27.8622 4.66133 27.3014C4.1 26.7418 3.74133 26.2009 3.46133 25.4585C3.24133 24.8976 2.98267 24.0363 2.90133 22.4738C2.84133 20.7912 2.82 20.2717 2.82 16.005C2.82 11.737 2.84133 11.2162 2.90133 9.51353C2.98267 7.95109 3.24133 7.09108 3.46133 6.5302C3.74133 5.76901 4.1 5.2482 4.66133 4.68599C5.22 4.12645 5.74133 3.76588 6.5 3.48678C7.06 3.2651 7.90133 3.00469 9.46133 2.92457C11.1613 2.86448 11.6613 2.84444 15.94 2.84444L16 2.88451ZM16 7.79618C11.46 7.79618 7.784 11.4819 7.784 16.025C7.784 20.5721 11.464 24.2539 16 24.2539C20.54 24.2539 24.216 20.5681 24.216 16.025C24.216 11.4779 20.536 7.79618 16 7.79618ZM16 21.3667C13.0533 21.3667 10.6667 18.9763 10.6667 16.025C10.6667 13.0737 13.0533 10.6834 16 10.6834C18.9467 10.6834 21.3333 13.0737 21.3333 16.025C21.3333 18.9763 18.9467 21.3667 16 21.3667ZM26.4613 7.47167C26.4613 8.53333 25.6 9.39468 24.5413 9.39468C23.4813 9.39468 22.6213 8.532 22.6213 7.47167C22.6213 6.41135 23.4827 5.55 24.5413 5.55C25.5987 5.54867 26.4613 6.41135 26.4613 7.47167Z" fill="#3A161D"/>
</g>
<defs>
<clipPath id="clip0_284_38">
<rect width="32" height="32.0501" fill="white"/>
</clipPath>
</defs>
</svg>
