<svg width="32" height="33" viewBox="0 0 32 33" fill="none" xmlns="http://www.w3.org/2000/svg">
<g clip-path="url(#clip0_284_40)">
<path d="M29.7143 0H2.27857C1.02143 0 0 1.03734 0 2.31075V29.7393C0 31.0127 1.02143 32.0501 2.27857 32.0501H29.7143C30.9714 32.0501 32 31.0127 32 29.7393V2.31075C32 1.03734 30.9714 0 29.7143 0ZM9.67143 27.4715H4.92857V12.1762H9.67857V27.4715H9.67143ZM7.3 10.0872C5.77857 10.0872 4.55 8.84954 4.55 7.33288C4.55 5.81623 5.77857 4.57858 7.3 4.57858C8.81429 4.57858 10.05 5.81623 10.05 7.33288C10.05 8.85669 8.82143 10.0872 7.3 10.0872ZM27.45 27.4715H22.7071V20.0313C22.7071 18.2571 22.6714 15.975 20.2429 15.975C17.7714 15.975 17.3929 17.9065 17.3929 19.9025V27.4715H12.65V12.1762H17.2V14.2651H17.2643C17.9 13.0633 19.45 11.797 21.7571 11.797C26.5571 11.797 27.45 14.9662 27.45 19.087V27.4715Z" fill="#3A161D"/>
</g>
<defs>
<clipPath id="clip0_284_40">
<rect width="32" height="32.0501" fill="white"/>
</clipPath>
</defs>
</svg>
