<svg width="32" height="33" viewBox="0 0 32 33" fill="none" xmlns="http://www.w3.org/2000/svg">
<g clip-path="url(#clip0_22_196)">
<path d="M29.7143 0.705566H2.27857C1.02143 0.705566 0 1.7429 0 3.01632V30.4449C0 31.7183 1.02143 32.7556 2.27857 32.7556H29.7143C30.9714 32.7556 32 31.7183 32 30.4449V3.01632C32 1.7429 30.9714 0.705566 29.7143 0.705566ZM9.67143 28.1771H4.92857V12.8817H9.67857V28.1771H9.67143ZM7.3 10.7928C5.77857 10.7928 4.55 9.55511 4.55 8.03845C4.55 6.5218 5.77857 5.28415 7.3 5.28415C8.81429 5.28415 10.05 6.5218 10.05 8.03845C10.05 9.56226 8.82143 10.7928 7.3 10.7928ZM27.45 28.1771H22.7071V20.7369C22.7071 18.9627 22.6714 16.6805 20.2429 16.6805C17.7714 16.6805 17.3929 18.6121 17.3929 20.6081V28.1771H12.65V12.8817H17.2V14.9707H17.2643C17.9 13.7688 19.45 12.5026 21.7571 12.5026C26.5571 12.5026 27.45 15.6718 27.45 19.7925V28.1771Z" fill="white"/>
</g>
<defs>
<clipPath id="clip0_22_196">
<rect width="32" height="32.0501" fill="white" transform="translate(0 0.705566)"/>
</clipPath>
</defs>
</svg>
