<svg width="40" height="40" viewBox="0 0 40 40" fill="none" xmlns="http://www.w3.org/2000/svg">
<path d="M19.9998 6.66668C23.6665 6.66668 26.6665 9.66668 26.6665 13.3333C26.6665 16.8333 23.1665 22.5 19.9998 26.5C16.8332 22.3333 13.3332 16.8333 13.3332 13.3333C13.3332 9.66668 16.3332 6.66668 19.9998 6.66668ZM19.9998 3.33334C14.4998 3.33334 9.99984 7.83334 9.99984 13.3333C9.99984 20.8333 19.9998 31.6667 19.9998 31.6667C19.9998 31.6667 29.9998 20.6667 29.9998 13.3333C29.9998 7.83334 25.4998 3.33334 19.9998 3.33334ZM19.9998 10C18.1665 10 16.6665 11.5 16.6665 13.3333C16.6665 15.1667 18.1665 16.6667 19.9998 16.6667C21.8332 16.6667 23.3332 15.1667 23.3332 13.3333C23.3332 11.5 21.8332 10 19.9998 10ZM33.3332 31.6667C33.3332 35.3333 27.3332 38.3333 19.9998 38.3333C12.6665 38.3333 6.6665 35.3333 6.6665 31.6667C6.6665 29.5 8.6665 27.6667 11.8332 26.3333L12.8332 27.8333C11.1665 28.6667 9.99984 29.6667 9.99984 30.8333C9.99984 33.1667 14.4998 35 19.9998 35C25.4998 35 29.9998 33.1667 29.9998 30.8333C29.9998 29.6667 28.8332 28.6667 26.9998 27.8333L27.9998 26.3333C31.3332 27.6667 33.3332 29.5 33.3332 31.6667Z" fill="#CBC7BA"/>
</svg>
