<svg width="316" height="159" viewBox="0 0 316 159" fill="none" xmlns="http://www.w3.org/2000/svg">
<path d="M111.121 85.6082H89.8357C88.0846 85.6082 86.665 84.1887 86.665 82.4376C86.665 80.6865 88.0846 79.2669 89.8357 79.2669H97.3849C99.1913 79.2669 100.798 78.1192 101.384 76.4104L112.108 45.1321C112.694 43.4234 114.301 42.2757 116.107 42.2757H123.03C125.928 42.2757 127.967 45.1263 127.031 47.8694L115.121 82.7468C114.537 84.4581 112.929 85.6082 111.121 85.6082Z" fill="#BF9257"/>
<path d="M130.146 5.28446H123.128C121.669 5.28446 120.486 4.10149 120.486 2.64223C120.486 1.18297 121.669 0 123.128 0H144.918C146.737 0 148.353 1.1644 148.928 2.89069L174.646 80.0438C175.559 82.7813 173.521 85.6082 170.635 85.6082H163.669C161.862 85.6082 160.254 84.4592 159.669 82.7491L134.146 8.14362C133.561 6.43349 131.954 5.28446 130.146 5.28446Z" fill="#BF9257"/>
<path d="M227.232 85.6082H205.97C204.151 85.6082 202.535 84.4438 201.96 82.7176L176.242 5.56444C175.329 2.82696 177.367 0 180.252 0H199.224C200.683 0 201.866 1.18297 201.866 2.64223C201.866 4.10149 200.683 5.28446 199.224 5.28446H197.903C195.183 5.28446 193.272 7.96074 194.154 10.5332L216.74 76.4104C217.326 78.1192 218.933 79.2669 220.739 79.2669H227.232C228.983 79.2669 230.402 80.6865 230.402 82.4376C230.402 84.1887 228.983 85.6082 227.232 85.6082Z" fill="#BF9257"/>
<path d="M13.6212 99.2851L22.6767 120.059C23.1079 120.998 23.463 121.721 23.742 122.228C24.021 122.735 24.3001 123.091 24.5791 123.293C24.8835 123.496 25.2259 123.636 25.6064 123.712C25.7078 124.042 25.7713 124.321 25.7966 124.549C25.822 124.777 25.8347 125.044 25.8347 125.348C25.581 125.323 25.1878 125.297 24.6552 125.272C24.1225 125.272 23.5645 125.259 22.9811 125.234C22.3977 125.234 21.903 125.234 21.4972 125.234C21.1928 125.234 20.8377 125.234 20.4318 125.234C20.026 125.259 19.6075 125.272 19.1762 125.272C18.745 125.297 18.3519 125.31 17.9968 125.31C17.667 125.335 17.4007 125.348 17.1977 125.348C17.1977 125.044 17.2104 124.752 17.2358 124.473C17.2865 124.194 17.3626 123.94 17.4641 123.712C18.5041 123.585 19.1128 123.357 19.2904 123.027C19.4933 122.672 19.3411 121.911 18.8338 120.744L13.5451 108.379C13.2154 107.592 12.9237 106.895 12.67 106.286C12.4164 105.677 12.112 104.904 11.7569 103.965H11.9471C11.6427 104.929 11.3637 105.753 11.11 106.438C10.8818 107.098 10.6535 107.732 10.4252 108.341L6.0877 119.641C5.52966 121.137 5.3521 122.177 5.55502 122.761C5.78331 123.319 6.41745 123.636 7.45743 123.712C7.55889 123.94 7.6223 124.194 7.64767 124.473C7.6984 124.752 7.72377 125.044 7.72377 125.348C7.44475 125.323 7.10231 125.297 6.69647 125.272C6.29062 125.272 5.85941 125.259 5.40283 125.234C4.97162 125.234 4.54041 125.234 4.1092 125.234C3.47506 125.234 2.87897 125.247 2.32093 125.272C1.7629 125.297 1.30632 125.323 0.951203 125.348C0.951203 125.094 0.963885 124.828 0.989251 124.549C1.03998 124.245 1.11608 123.978 1.21754 123.75C1.67412 123.649 2.0546 123.471 2.35898 123.217C2.66337 122.964 2.95507 122.558 3.23409 122C3.53847 121.416 3.88091 120.63 4.26139 119.641L12.1373 99.4373C12.391 99.3865 12.6193 99.3485 12.8222 99.3231C13.0505 99.2978 13.3168 99.2851 13.6212 99.2851ZM17.0836 115.151L17.426 116.863C15.7266 116.863 13.9002 116.876 11.9471 116.901C10.0193 116.927 8.26912 116.965 6.69647 117.015L7.30524 115.151H17.0836ZM30.4424 125.348C30.4424 124.993 30.455 124.689 30.4804 124.435C30.5058 124.156 30.5565 123.915 30.6326 123.712C31.3175 123.661 31.8501 123.534 32.2306 123.331C32.6111 123.129 32.8774 122.773 33.0296 122.266C33.2072 121.733 33.296 120.972 33.296 119.983V104.345C33.296 103.483 33.2199 102.824 33.0677 102.367C32.9155 101.91 32.6491 101.581 32.2687 101.378C31.8882 101.175 31.3555 101.061 30.6706 101.035C30.5945 100.832 30.5438 100.591 30.5184 100.312C30.4931 100.008 30.4804 99.7036 30.4804 99.3992C30.8862 99.4246 31.3936 99.45 32.0023 99.4753C32.6365 99.4753 33.2833 99.488 33.9428 99.5134C34.6276 99.5134 35.2491 99.5134 35.8071 99.5134C36.5427 99.5134 37.291 99.5007 38.052 99.4753C38.8129 99.45 39.5612 99.4373 40.2968 99.4373C41.6412 99.4373 42.9982 99.5387 44.368 99.7417C45.7377 99.9192 47.044 100.262 48.2869 100.769C49.5298 101.251 50.6332 101.961 51.5971 102.9C52.5864 103.813 53.36 104.992 53.918 106.438C54.4761 107.859 54.7551 109.621 54.7551 111.727C54.7551 113.781 54.5014 115.544 53.9941 117.015C53.4868 118.487 52.802 119.717 51.9395 120.706C51.1025 121.695 50.164 122.494 49.124 123.103C48.084 123.712 47.0186 124.169 45.9279 124.473C44.8626 124.777 43.8353 124.98 42.846 125.082C41.8568 125.183 41.007 125.234 40.2968 125.234C39.5866 125.234 38.7622 125.234 37.8237 125.234C36.9105 125.234 35.972 125.234 35.0081 125.234C34.0696 125.259 33.1945 125.272 32.3828 125.272C31.5711 125.297 30.9243 125.323 30.4424 125.348ZM40.2968 123.522C41.8187 123.522 43.2138 123.344 44.4821 122.989C45.7757 122.609 46.8918 122 47.8303 121.163C48.7942 120.3 49.5298 119.146 50.0371 117.7C50.5698 116.255 50.8361 114.454 50.8361 112.298C50.8361 110.243 50.5191 108.493 49.8849 107.047C49.2762 105.576 48.4391 104.396 47.3738 103.508C46.3338 102.595 45.1416 101.936 43.7972 101.53C42.4782 101.099 41.1085 100.883 39.688 100.883C39.13 100.883 38.5212 100.934 37.8617 101.035C37.2022 101.111 36.771 101.213 36.5681 101.34L36.8725 100.35V119.983C36.8725 120.922 36.9613 121.645 37.1388 122.152C37.3164 122.659 37.6461 123.014 38.1281 123.217C38.6354 123.42 39.3583 123.522 40.2968 123.522ZM62.5728 104.345C62.5728 103.483 62.4967 102.824 62.3445 102.367C62.1923 101.91 61.926 101.581 61.5455 101.378C61.165 101.175 60.6323 101.061 59.9475 101.035C59.8714 100.832 59.8206 100.591 59.7953 100.312C59.7699 100.033 59.7572 99.729 59.7572 99.3992C60.2392 99.4246 60.7211 99.45 61.2031 99.4753C61.7104 99.4753 62.2304 99.488 62.763 99.5134C63.2957 99.5134 63.8284 99.5134 64.361 99.5134C64.9191 99.5134 65.4518 99.5134 65.9591 99.5134C66.4664 99.488 66.961 99.4753 67.4429 99.4753C67.9503 99.45 68.4576 99.4246 68.9649 99.3992C68.9649 99.729 68.9522 100.033 68.9268 100.312C68.9015 100.591 68.8507 100.832 68.7746 101.035C68.1151 101.061 67.5825 101.175 67.1766 101.378C66.7961 101.581 66.5298 101.91 66.3776 102.367C66.2254 102.824 66.1493 103.483 66.1493 104.345V120.402C66.1493 121.239 66.2254 121.898 66.3776 122.38C66.5298 122.837 66.7961 123.167 67.1766 123.37C67.5825 123.547 68.1151 123.661 68.7746 123.712C68.8507 123.915 68.9015 124.156 68.9268 124.435C68.9522 124.689 68.9649 124.993 68.9649 125.348C68.2039 125.297 67.4303 125.259 66.6439 125.234C65.8576 125.234 65.0966 125.234 64.361 125.234C63.6255 125.234 62.8391 125.234 62.0021 125.234C61.165 125.259 60.4167 125.297 59.7572 125.348C59.7572 124.993 59.7699 124.689 59.7953 124.435C59.8206 124.156 59.8714 123.915 59.9475 123.712C60.6323 123.661 61.165 123.547 61.5455 123.37C61.926 123.167 62.1923 122.837 62.3445 122.38C62.4967 121.898 62.5728 121.239 62.5728 120.402V104.345ZM93.0309 125.576C92.2699 124.562 91.5977 123.636 91.0143 122.799C90.4563 121.962 89.7841 120.922 88.9978 119.679C88.4905 118.867 87.9959 118.132 87.5139 117.472C87.0573 116.787 86.4993 116.09 85.8398 115.379C85.1803 114.669 84.3306 113.883 83.2906 113.02L84.2798 113.515C83.6203 113.54 83.0116 113.553 82.4535 113.553C81.8955 113.553 81.3628 113.54 80.8555 113.515V111.727C81.2106 111.778 81.5404 111.816 81.8448 111.841C82.1491 111.866 82.4662 111.879 82.796 111.879C84.1911 111.879 85.4466 111.689 86.5627 111.308C87.6788 110.902 88.5666 110.281 89.2261 109.444C89.8856 108.607 90.2153 107.529 90.2153 106.21C90.2153 104.713 89.7334 103.496 88.7695 102.557C87.831 101.593 86.2203 101.111 83.9374 101.111C83.354 101.111 82.834 101.137 82.3774 101.187C81.9208 101.238 81.4389 101.327 80.9316 101.454L81.1218 100.731V120.402C81.1218 121.239 81.1979 121.898 81.3501 122.38C81.5023 122.837 81.7687 123.167 82.1491 123.37C82.555 123.547 83.0877 123.661 83.7472 123.712C83.8233 123.94 83.874 124.207 83.8993 124.511C83.9247 124.79 83.9374 125.069 83.9374 125.348C83.3794 125.297 82.796 125.259 82.1872 125.234C81.6038 125.234 81.0584 125.234 80.5511 125.234C80.0438 125.234 79.6253 125.234 79.2955 125.234C78.636 125.234 77.8497 125.234 76.9365 125.234C76.0488 125.259 75.3132 125.297 74.7298 125.348C74.7298 125.069 74.7424 124.79 74.7678 124.511C74.7932 124.232 74.8439 123.966 74.92 123.712C75.6049 123.661 76.1375 123.547 76.518 123.37C76.8985 123.167 77.1648 122.837 77.317 122.38C77.4692 121.898 77.5453 121.239 77.5453 120.402V104.345C77.5453 103.483 77.4692 102.824 77.317 102.367C77.1648 101.885 76.8985 101.543 76.518 101.34C76.1375 101.137 75.6049 101.035 74.92 101.035C74.8439 100.782 74.7932 100.528 74.7678 100.274C74.7424 100.021 74.7298 99.7417 74.7298 99.4373C74.9834 99.4373 75.3512 99.45 75.8331 99.4753C76.3405 99.4753 76.8858 99.488 77.4692 99.5134C78.078 99.5134 78.636 99.5134 79.1433 99.5134C79.8789 99.5134 80.6399 99.5134 81.4262 99.5134C82.2125 99.488 82.9355 99.4753 83.595 99.4753C84.2545 99.45 84.7618 99.4373 85.1169 99.4373C87.2983 99.4373 89.0232 99.7163 90.2914 100.274C91.5851 100.832 92.5109 101.593 93.0689 102.557C93.6523 103.496 93.9441 104.548 93.9441 105.715C93.9441 106.958 93.665 108.062 93.107 109.025C92.5743 109.964 91.788 110.763 90.748 111.422C89.7334 112.057 88.5032 112.539 87.0573 112.868L87.2476 112.412C87.831 112.843 88.3256 113.261 88.7315 113.667C89.1627 114.048 89.5558 114.466 89.9109 114.923C90.2914 115.379 90.6846 115.925 91.0904 116.559C91.5217 117.168 92.0163 117.916 92.5743 118.804C93.2845 119.869 93.9567 120.757 94.5909 121.467C95.225 122.152 95.8972 122.672 96.6074 123.027C97.343 123.357 98.1928 123.547 99.1566 123.598C99.1566 123.902 99.144 124.181 99.1186 124.435C99.1186 124.689 99.0805 124.955 99.0044 125.234C98.0659 125.234 97.064 125.247 95.9986 125.272C94.9587 125.323 93.9694 125.424 93.0309 125.576ZM125.896 125.576L116.727 105.639H117.107L115.814 118.537C115.687 119.882 115.674 120.922 115.776 121.657C115.877 122.368 116.131 122.875 116.537 123.179C116.968 123.458 117.551 123.636 118.287 123.712C118.363 123.966 118.414 124.257 118.439 124.587C118.464 124.917 118.477 125.17 118.477 125.348C117.868 125.297 117.171 125.259 116.384 125.234C115.623 125.234 114.964 125.234 114.406 125.234C114.051 125.234 113.632 125.234 113.15 125.234C112.694 125.259 112.237 125.272 111.781 125.272C111.349 125.297 110.956 125.323 110.601 125.348C110.601 125.17 110.614 124.917 110.639 124.587C110.665 124.257 110.715 123.966 110.791 123.712C111.476 123.636 112.009 123.471 112.389 123.217C112.795 122.938 113.112 122.418 113.341 121.657C113.569 120.896 113.746 119.742 113.873 118.195L115.091 104.65C115.167 103.737 115.129 103.026 114.977 102.519C114.85 101.986 114.583 101.606 114.178 101.378C113.797 101.149 113.252 101.035 112.542 101.035C112.465 100.782 112.415 100.503 112.389 100.198C112.364 99.8938 112.351 99.6275 112.351 99.3992C112.605 99.4246 112.897 99.45 113.226 99.4753C113.556 99.4753 113.899 99.488 114.254 99.5134C114.609 99.5134 114.939 99.5134 115.243 99.5134C115.573 99.5134 115.89 99.5134 116.194 99.5134C116.524 99.488 116.841 99.4753 117.145 99.4753C117.475 99.45 117.805 99.4246 118.135 99.3992L128.103 121.429H127.266L135.941 99.3992C136.246 99.4246 136.563 99.45 136.892 99.4753C137.222 99.4753 137.552 99.488 137.882 99.5134C138.237 99.5134 138.579 99.5134 138.909 99.5134C139.239 99.5134 139.556 99.5134 139.86 99.5134C140.19 99.488 140.507 99.4753 140.811 99.4753C141.141 99.45 141.471 99.4246 141.801 99.3992C141.801 99.6529 141.788 99.9192 141.762 100.198C141.737 100.477 141.686 100.756 141.61 101.035C140.723 101.035 140.025 101.302 139.518 101.834C139.036 102.342 138.871 103.356 139.023 104.878L140.393 118.842C140.52 120.085 140.684 121.049 140.887 121.733C141.09 122.418 141.369 122.9 141.724 123.179C142.105 123.458 142.587 123.623 143.17 123.674C143.246 123.928 143.297 124.207 143.322 124.511C143.348 124.815 143.361 125.094 143.361 125.348C143.056 125.323 142.714 125.297 142.333 125.272C141.953 125.272 141.547 125.259 141.116 125.234C140.71 125.234 140.304 125.234 139.898 125.234C139.518 125.234 139.15 125.234 138.795 125.234C138.338 125.234 137.831 125.234 137.273 125.234C136.715 125.259 136.157 125.272 135.599 125.272C135.066 125.297 134.584 125.323 134.153 125.348C134.153 125.12 134.166 124.853 134.191 124.549C134.242 124.245 134.305 123.966 134.381 123.712C135.193 123.636 135.776 123.471 136.131 123.217C136.512 122.964 136.727 122.532 136.778 121.924C136.854 121.315 136.829 120.453 136.702 119.336L135.256 105.487H135.675L127.456 125.31C127.228 125.411 126.987 125.475 126.733 125.5C126.48 125.551 126.201 125.576 125.896 125.576ZM159.823 99.2851L168.878 120.059C169.309 120.998 169.664 121.721 169.943 122.228C170.222 122.735 170.501 123.091 170.78 123.293C171.085 123.496 171.427 123.636 171.808 123.712C171.909 124.042 171.973 124.321 171.998 124.549C172.023 124.777 172.036 125.044 172.036 125.348C171.782 125.323 171.389 125.297 170.857 125.272C170.324 125.272 169.766 125.259 169.182 125.234C168.599 125.234 168.104 125.234 167.699 125.234C167.394 125.234 167.039 125.234 166.633 125.234C166.227 125.259 165.809 125.272 165.378 125.272C164.946 125.297 164.553 125.31 164.198 125.31C163.868 125.335 163.602 125.348 163.399 125.348C163.399 125.044 163.412 124.752 163.437 124.473C163.488 124.194 163.564 123.94 163.665 123.712C164.705 123.585 165.314 123.357 165.492 123.027C165.695 122.672 165.542 121.911 165.035 120.744L159.746 108.379C159.417 107.592 159.125 106.895 158.871 106.286C158.618 105.677 158.313 104.904 157.958 103.965H158.148C157.844 104.929 157.565 105.753 157.311 106.438C157.083 107.098 156.855 107.732 156.627 108.341L152.289 119.641C151.731 121.137 151.553 122.177 151.756 122.761C151.985 123.319 152.619 123.636 153.659 123.712C153.76 123.94 153.824 124.194 153.849 124.473C153.9 124.752 153.925 125.044 153.925 125.348C153.646 125.323 153.304 125.297 152.898 125.272C152.492 125.272 152.061 125.259 151.604 125.234C151.173 125.234 150.742 125.234 150.311 125.234C149.676 125.234 149.08 125.247 148.522 125.272C147.964 125.297 147.508 125.323 147.153 125.348C147.153 125.094 147.165 124.828 147.191 124.549C147.241 124.245 147.317 123.978 147.419 123.75C147.875 123.649 148.256 123.471 148.56 123.217C148.865 122.964 149.156 122.558 149.435 122C149.74 121.416 150.082 120.63 150.463 119.641L158.339 99.4373C158.592 99.3865 158.821 99.3485 159.024 99.3231C159.252 99.2978 159.518 99.2851 159.823 99.2851ZM163.285 115.151L163.627 116.863C161.928 116.863 160.102 116.876 158.148 116.901C156.221 116.927 154.47 116.965 152.898 117.015L153.507 115.151H163.285ZM187.201 125.576C184.842 125.576 182.749 125.018 180.923 123.902C179.122 122.761 177.702 121.188 176.662 119.184C175.622 117.155 175.102 114.821 175.102 112.183C175.102 110.002 175.457 108.1 176.167 106.476C176.877 104.853 177.828 103.496 179.021 102.405C180.238 101.314 181.595 100.503 183.092 99.9699C184.614 99.4373 186.186 99.1709 187.81 99.1709C189.408 99.1709 190.866 99.3358 192.185 99.6656C193.504 99.9953 194.861 100.49 196.256 101.149C196.079 102.037 195.965 102.988 195.914 104.003C195.863 104.992 195.838 106.007 195.838 107.047C195.508 107.174 195.191 107.262 194.887 107.313C194.582 107.364 194.227 107.389 193.821 107.389C193.77 105.588 193.504 104.206 193.022 103.242C192.54 102.278 191.881 101.619 191.044 101.264C190.207 100.908 189.23 100.731 188.114 100.731C186.516 100.731 185.146 101.023 184.005 101.606C182.863 102.189 181.925 102.976 181.189 103.965C180.479 104.929 179.946 106.032 179.591 107.275C179.261 108.518 179.097 109.812 179.097 111.156C179.097 113.414 179.477 115.468 180.238 117.32C181.024 119.146 182.14 120.592 183.586 121.657C185.032 122.723 186.77 123.255 188.799 123.255C190.016 123.255 191.259 123.052 192.528 122.647C193.796 122.241 194.963 121.695 196.028 121.011C196.18 121.137 196.32 121.328 196.447 121.581C196.599 121.81 196.688 122.012 196.713 122.19C195.216 123.357 193.732 124.219 192.261 124.777C190.815 125.31 189.129 125.576 187.201 125.576ZM217.461 125.348C217.461 124.993 217.474 124.689 217.499 124.435C217.525 124.156 217.575 123.915 217.652 123.712C218.336 123.661 218.869 123.547 219.25 123.37C219.63 123.167 219.896 122.837 220.049 122.38C220.201 121.898 220.277 121.239 220.277 120.402V104.345C220.277 103.483 220.201 102.824 220.049 102.367C219.896 101.91 219.63 101.581 219.25 101.378C218.869 101.175 218.336 101.061 217.652 101.035C217.575 100.832 217.525 100.591 217.499 100.312C217.474 100.033 217.461 99.729 217.461 99.3992C217.943 99.4246 218.425 99.45 218.907 99.4753C219.414 99.4753 219.934 99.488 220.467 99.5134C221 99.5134 221.532 99.5134 222.065 99.5134C222.623 99.5134 223.156 99.5134 223.663 99.5134C224.17 99.488 224.665 99.4753 225.147 99.4753C225.654 99.45 226.162 99.4246 226.669 99.3992C226.669 99.729 226.656 100.033 226.631 100.312C226.606 100.591 226.555 100.832 226.479 101.035C225.819 101.061 225.287 101.175 224.881 101.378C224.5 101.581 224.234 101.91 224.082 102.367C223.929 102.824 223.853 103.483 223.853 104.345V120.402C223.853 121.239 223.929 121.898 224.082 122.38C224.234 122.837 224.5 123.167 224.881 123.37C225.287 123.547 225.819 123.661 226.479 123.712C226.555 123.915 226.606 124.156 226.631 124.435C226.656 124.689 226.669 124.993 226.669 125.348C225.908 125.297 225.134 125.259 224.348 125.234C223.562 125.234 222.801 125.234 222.065 125.234C221.33 125.234 220.543 125.234 219.706 125.234C218.869 125.259 218.121 125.297 217.461 125.348ZM202.28 125.348C202.28 124.993 202.293 124.689 202.318 124.435C202.344 124.156 202.394 123.915 202.47 123.712C203.155 123.661 203.688 123.547 204.068 123.37C204.449 123.167 204.715 122.837 204.867 122.38C205.02 121.898 205.096 121.239 205.096 120.402V104.345C205.096 103.483 205.02 102.824 204.867 102.367C204.715 101.91 204.449 101.581 204.068 101.378C203.688 101.175 203.155 101.061 202.47 101.035C202.394 100.832 202.344 100.591 202.318 100.312C202.293 100.033 202.28 99.729 202.28 99.3992C202.762 99.4246 203.244 99.45 203.726 99.4753C204.233 99.4753 204.753 99.488 205.286 99.5134C205.819 99.5134 206.351 99.5134 206.884 99.5134C207.442 99.5134 207.975 99.5134 208.482 99.5134C208.989 99.488 209.484 99.4753 209.966 99.4753C210.473 99.45 210.98 99.4246 211.488 99.3992C211.488 99.729 211.475 100.033 211.45 100.312C211.424 100.591 211.374 100.832 211.297 101.035C210.638 101.061 210.105 101.175 209.699 101.378C209.319 101.581 209.053 101.91 208.9 102.367C208.748 102.824 208.672 103.483 208.672 104.345V120.402C208.672 121.239 208.748 121.898 208.9 122.38C209.053 122.837 209.319 123.167 209.699 123.37C210.105 123.547 210.638 123.661 211.297 123.712C211.374 123.915 211.424 124.156 211.45 124.435C211.475 124.689 211.488 124.993 211.488 125.348C210.727 125.297 209.953 125.259 209.167 125.234C208.38 125.234 207.62 125.234 206.884 125.234C206.148 125.234 205.362 125.234 204.525 125.234C203.688 125.259 202.94 125.297 202.28 125.348ZM208.482 113.097V111.232H220.467V112.868C219.757 112.868 218.869 112.868 217.804 112.868C216.738 112.868 215.622 112.881 214.455 112.906C213.314 112.906 212.211 112.932 211.145 112.982C210.105 113.008 209.218 113.046 208.482 113.097ZM243.94 99.2851L252.996 120.059C253.427 120.998 253.782 121.721 254.061 122.228C254.34 122.735 254.619 123.091 254.898 123.293C255.202 123.496 255.545 123.636 255.925 123.712C256.027 124.042 256.09 124.321 256.115 124.549C256.141 124.777 256.154 125.044 256.154 125.348C255.9 125.323 255.507 125.297 254.974 125.272C254.441 125.272 253.883 125.259 253.3 125.234C252.717 125.234 252.222 125.234 251.816 125.234C251.512 125.234 251.157 125.234 250.751 125.234C250.345 125.259 249.926 125.272 249.495 125.272C249.064 125.297 248.671 125.31 248.316 125.31C247.986 125.335 247.72 125.348 247.517 125.348C247.517 125.044 247.529 124.752 247.555 124.473C247.605 124.194 247.681 123.94 247.783 123.712C248.823 123.585 249.432 123.357 249.609 123.027C249.812 122.672 249.66 121.911 249.153 120.744L243.864 108.379C243.534 107.592 243.243 106.895 242.989 106.286C242.735 105.677 242.431 104.904 242.076 103.965H242.266C241.962 104.929 241.683 105.753 241.429 106.438C241.201 107.098 240.972 107.732 240.744 108.341L236.407 119.641C235.849 121.137 235.671 122.177 235.874 122.761C236.102 123.319 236.736 123.636 237.776 123.712C237.878 123.94 237.941 124.194 237.967 124.473C238.017 124.752 238.043 125.044 238.043 125.348C237.764 125.323 237.421 125.297 237.015 125.272C236.609 125.272 236.178 125.259 235.722 125.234C235.29 125.234 234.859 125.234 234.428 125.234C233.794 125.234 233.198 125.247 232.64 125.272C232.082 125.297 231.625 125.323 231.27 125.348C231.27 125.094 231.283 124.828 231.308 124.549C231.359 124.245 231.435 123.978 231.536 123.75C231.993 123.649 232.373 123.471 232.678 123.217C232.982 122.964 233.274 122.558 233.553 122C233.857 121.416 234.2 120.63 234.58 119.641L242.456 99.4373C242.71 99.3865 242.938 99.3485 243.141 99.3231C243.369 99.2978 243.636 99.2851 243.94 99.2851ZM247.402 115.151L247.745 116.863C246.045 116.863 244.219 116.876 242.266 116.901C240.338 116.927 238.588 116.965 237.015 117.015L237.624 115.151H247.402ZM260.761 125.348C260.761 124.993 260.774 124.689 260.799 124.435C260.825 124.156 260.875 123.915 260.951 123.712C261.636 123.661 262.169 123.534 262.549 123.331C262.93 123.129 263.196 122.773 263.348 122.266C263.526 121.733 263.615 120.972 263.615 119.983V104.345C263.615 103.483 263.539 102.824 263.387 102.367C263.234 101.91 262.968 101.581 262.588 101.378C262.207 101.175 261.674 101.061 260.99 101.035C260.913 100.832 260.863 100.591 260.837 100.312C260.812 100.008 260.799 99.7036 260.799 99.3992C261.205 99.4246 261.712 99.45 262.321 99.4753C262.955 99.4753 263.602 99.488 264.262 99.5134C264.947 99.5134 265.568 99.5134 266.126 99.5134C266.862 99.5134 267.61 99.5007 268.371 99.4753C269.132 99.45 269.88 99.4373 270.616 99.4373C271.96 99.4373 273.317 99.5387 274.687 99.7417C276.057 99.9192 277.363 100.262 278.606 100.769C279.849 101.251 280.952 101.961 281.916 102.9C282.905 103.813 283.679 104.992 284.237 106.438C284.795 107.859 285.074 109.621 285.074 111.727C285.074 113.781 284.82 115.544 284.313 117.015C283.806 118.487 283.121 119.717 282.258 120.706C281.421 121.695 280.483 122.494 279.443 123.103C278.403 123.712 277.338 124.169 276.247 124.473C275.181 124.777 274.154 124.98 273.165 125.082C272.176 125.183 271.326 125.234 270.616 125.234C269.905 125.234 269.081 125.234 268.143 125.234C267.229 125.234 266.291 125.234 265.327 125.234C264.388 125.259 263.513 125.272 262.702 125.272C261.89 125.297 261.243 125.323 260.761 125.348ZM270.616 123.522C272.138 123.522 273.533 123.344 274.801 122.989C276.095 122.609 277.211 122 278.149 121.163C279.113 120.3 279.849 119.146 280.356 117.7C280.889 116.255 281.155 114.454 281.155 112.298C281.155 110.243 280.838 108.493 280.204 107.047C279.595 105.576 278.758 104.396 277.693 103.508C276.653 102.595 275.46 101.936 274.116 101.53C272.797 101.099 271.427 100.883 270.007 100.883C269.449 100.883 268.84 100.934 268.181 101.035C267.521 101.111 267.09 101.213 266.887 101.34L267.191 100.35V119.983C267.191 120.922 267.28 121.645 267.458 122.152C267.635 122.659 267.965 123.014 268.447 123.217C268.954 123.42 269.677 123.522 270.616 123.522ZM301.833 125.576C299.322 125.576 297.128 124.993 295.251 123.826C293.374 122.659 291.902 121.074 290.837 119.07C289.797 117.066 289.277 114.809 289.277 112.298C289.277 110.344 289.594 108.569 290.228 106.971C290.888 105.373 291.788 103.99 292.93 102.824C294.071 101.657 295.403 100.756 296.925 100.122C298.447 99.488 300.083 99.1709 301.833 99.1709C304.268 99.1709 306.424 99.729 308.301 100.845C310.204 101.936 311.7 103.47 312.791 105.449C313.882 107.402 314.427 109.685 314.427 112.298C314.427 114.175 314.123 115.925 313.514 117.548C312.905 119.146 312.03 120.554 310.888 121.772C309.772 122.964 308.441 123.902 306.893 124.587C305.371 125.247 303.685 125.576 301.833 125.576ZM302.594 123.712C304.243 123.712 305.65 123.255 306.817 122.342C308.009 121.404 308.923 120.148 309.557 118.575C310.191 116.977 310.508 115.215 310.508 113.287C310.508 111.004 310.089 108.937 309.252 107.085C308.441 105.208 307.325 103.724 305.904 102.633C304.484 101.543 302.86 100.997 301.034 100.997C299.537 100.997 298.193 101.428 297.001 102.291C295.834 103.128 294.908 104.32 294.223 105.867C293.538 107.415 293.196 109.216 293.196 111.27C293.196 112.868 293.399 114.416 293.805 115.912C294.211 117.409 294.807 118.74 295.593 119.907C296.405 121.074 297.394 122 298.561 122.685C299.728 123.37 301.072 123.712 302.594 123.712Z" fill="#888681"/>
<path d="M53.838 143.161L54.4721 141.47H61.0248L61.659 143.161H53.838ZM57.7062 136.143L55.2119 142.019L55.0428 142.4L52.8445 147.6H50.8364L57.7062 132.063L64.576 147.6H62.5679L60.4118 142.527L60.2427 142.104L57.7062 136.143ZM73.9856 131.112H75.6767V147.6H73.9856V131.112ZM65.8476 142.738C65.8476 141.681 66.066 140.779 66.5028 140.032C66.9397 139.271 67.5245 138.686 68.2573 138.278C68.9901 137.869 69.7933 137.665 70.667 137.665C71.4843 137.665 72.196 137.869 72.8019 138.278C73.4079 138.686 73.8799 139.271 74.2182 140.032C74.5705 140.779 74.7466 141.681 74.7466 142.738C74.7466 143.781 74.5705 144.683 74.2182 145.444C73.8799 146.205 73.4079 146.789 72.8019 147.198C72.196 147.607 71.4843 147.811 70.667 147.811C69.7933 147.811 68.9901 147.607 68.2573 147.198C67.5245 146.789 66.9397 146.205 66.5028 145.444C66.066 144.683 65.8476 143.781 65.8476 142.738ZM67.5597 142.738C67.5597 143.485 67.7077 144.119 68.0036 144.64C68.3137 145.162 68.7223 145.556 69.2296 145.824C69.7369 146.092 70.2865 146.226 70.8784 146.226C71.3716 146.226 71.8578 146.092 72.3369 145.824C72.816 145.556 73.2106 145.162 73.5206 144.64C73.8306 144.119 73.9856 143.485 73.9856 142.738C73.9856 141.991 73.8306 141.357 73.5206 140.836C73.2106 140.314 72.816 139.92 72.3369 139.652C71.8578 139.384 71.3716 139.25 70.8784 139.25C70.2865 139.25 69.7369 139.384 69.2296 139.652C68.7223 139.92 68.3137 140.314 68.0036 140.836C67.7077 141.357 67.5597 141.991 67.5597 142.738ZM77.5857 137.876H79.4881L82.236 144.746L84.9839 137.876H86.8863L82.236 148.339L77.5857 137.876ZM87.7484 142.738C87.7484 141.751 87.9668 140.878 88.4036 140.117C88.8546 139.356 89.4605 138.757 90.2215 138.32C90.9824 137.883 91.835 137.665 92.7792 137.665C93.7374 137.665 94.59 137.883 95.3368 138.32C96.0978 138.757 96.6967 139.356 97.1336 140.117C97.5845 140.878 97.81 141.751 97.81 142.738C97.81 143.71 97.5845 144.584 97.1336 145.359C96.6967 146.12 96.0978 146.719 95.3368 147.156C94.59 147.593 93.7374 147.811 92.7792 147.811C91.835 147.811 90.9824 147.593 90.2215 147.156C89.4605 146.719 88.8546 146.12 88.4036 145.359C87.9668 144.584 87.7484 143.71 87.7484 142.738ZM89.4605 142.738C89.4605 143.414 89.6014 144.013 89.8833 144.535C90.1792 145.056 90.5738 145.472 91.067 145.782C91.5743 146.078 92.145 146.226 92.7792 146.226C93.4133 146.226 93.977 146.078 94.4702 145.782C94.9775 145.472 95.3721 145.056 95.6539 144.535C95.9498 144.013 96.0978 143.414 96.0978 142.738C96.0978 142.061 95.9498 141.463 95.6539 140.941C95.3721 140.406 94.9775 139.99 94.4702 139.694C93.977 139.398 93.4133 139.25 92.7792 139.25C92.145 139.25 91.5743 139.398 91.067 139.694C90.5738 139.99 90.1792 140.406 89.8833 140.941C89.6014 141.463 89.4605 142.061 89.4605 142.738ZM99.9005 148.234H101.613C101.613 148.699 101.739 149.129 101.993 149.523C102.247 149.932 102.606 150.256 103.071 150.495C103.536 150.749 104.086 150.876 104.72 150.876C105.213 150.876 105.699 150.756 106.178 150.517C106.658 150.277 107.052 149.897 107.362 149.375C107.686 148.868 107.848 148.206 107.848 147.388V137.876H109.539V147.388C109.539 148.501 109.307 149.432 108.842 150.178C108.377 150.939 107.778 151.51 107.045 151.891C106.312 152.271 105.537 152.461 104.72 152.461C103.776 152.461 102.937 152.285 102.204 151.933C101.486 151.581 100.922 151.08 100.513 150.432C100.105 149.798 99.9005 149.065 99.9005 148.234ZM99.7102 142.738C99.7102 141.681 99.9286 140.779 100.365 140.032C100.802 139.271 101.387 138.686 102.12 138.278C102.853 137.869 103.656 137.665 104.53 137.665C105.347 137.665 106.059 137.869 106.665 138.278C107.271 138.686 107.743 139.271 108.081 140.032C108.433 140.779 108.609 141.681 108.609 142.738C108.609 143.781 108.433 144.683 108.081 145.444C107.743 146.205 107.271 146.789 106.665 147.198C106.059 147.607 105.347 147.811 104.53 147.811C103.656 147.811 102.853 147.607 102.12 147.198C101.387 146.789 100.802 146.205 100.365 145.444C99.9286 144.683 99.7102 143.781 99.7102 142.738ZM101.422 142.738C101.422 143.485 101.57 144.119 101.866 144.64C102.176 145.162 102.585 145.556 103.092 145.824C103.6 146.092 104.149 146.226 104.741 146.226C105.234 146.226 105.72 146.092 106.2 145.824C106.679 145.556 107.073 145.162 107.383 144.64C107.693 144.119 107.848 143.485 107.848 142.738C107.848 142.174 107.757 141.681 107.573 141.258C107.39 140.821 107.144 140.455 106.834 140.159C106.538 139.863 106.207 139.638 105.84 139.483C105.474 139.328 105.107 139.25 104.741 139.25C104.149 139.25 103.6 139.384 103.092 139.652C102.585 139.92 102.176 140.314 101.866 140.836C101.57 141.357 101.422 141.991 101.422 142.738ZM113.795 144.598C113.795 144.964 113.879 145.281 114.048 145.549C114.231 145.817 114.478 146.021 114.788 146.162C115.112 146.289 115.479 146.352 115.887 146.352C116.409 146.352 116.874 146.247 117.282 146.035C117.705 145.824 118.036 145.528 118.276 145.148C118.529 144.753 118.656 144.302 118.656 143.795L118.995 145.063C118.995 145.683 118.804 146.197 118.424 146.606C118.057 147.015 117.599 147.318 117.05 147.515C116.514 147.712 115.979 147.811 115.443 147.811C114.852 147.811 114.295 147.691 113.773 147.452C113.266 147.198 112.858 146.839 112.547 146.374C112.237 145.909 112.082 145.345 112.082 144.683C112.082 143.738 112.414 142.985 113.076 142.421C113.752 141.843 114.689 141.554 115.887 141.554C116.592 141.554 117.177 141.639 117.642 141.808C118.121 141.963 118.501 142.146 118.783 142.357C119.065 142.555 119.255 142.717 119.354 142.844V143.837C118.861 143.499 118.353 143.259 117.832 143.118C117.311 142.963 116.754 142.886 116.162 142.886C115.612 142.886 115.162 142.956 114.809 143.097C114.471 143.238 114.217 143.435 114.048 143.689C113.879 143.943 113.795 144.246 113.795 144.598ZM113.541 140.117L112.717 138.87C113.083 138.602 113.583 138.334 114.217 138.066C114.866 137.799 115.641 137.665 116.543 137.665C117.304 137.665 117.966 137.785 118.529 138.024C119.107 138.25 119.551 138.581 119.861 139.018C120.185 139.454 120.347 139.99 120.347 140.624V147.6H118.656V140.857C118.656 140.518 118.6 140.244 118.487 140.032C118.374 139.807 118.212 139.631 118.001 139.504C117.804 139.377 117.571 139.285 117.304 139.229C117.036 139.173 116.754 139.144 116.458 139.144C115.979 139.144 115.542 139.201 115.147 139.314C114.767 139.426 114.443 139.56 114.175 139.715C113.907 139.87 113.696 140.004 113.541 140.117ZM130.926 131.112H132.617V147.6H130.926V131.112ZM122.788 142.738C122.788 141.681 123.006 140.779 123.443 140.032C123.88 139.271 124.465 138.686 125.197 138.278C125.93 137.869 126.733 137.665 127.607 137.665C128.424 137.665 129.136 137.869 129.742 138.278C130.348 138.686 130.82 139.271 131.158 140.032C131.51 140.779 131.687 141.681 131.687 142.738C131.687 143.781 131.51 144.683 131.158 145.444C130.82 146.205 130.348 146.789 129.742 147.198C129.136 147.607 128.424 147.811 127.607 147.811C126.733 147.811 125.93 147.607 125.197 147.198C124.465 146.789 123.88 146.205 123.443 145.444C123.006 144.683 122.788 143.781 122.788 142.738ZM124.5 142.738C124.5 143.485 124.648 144.119 124.944 144.64C125.254 145.162 125.662 145.556 126.17 145.824C126.677 146.092 127.227 146.226 127.818 146.226C128.312 146.226 128.798 146.092 129.277 145.824C129.756 145.556 130.151 145.162 130.461 144.64C130.771 144.119 130.926 143.485 130.926 142.738C130.926 141.991 130.771 141.357 130.461 140.836C130.151 140.314 129.756 139.92 129.277 139.652C128.798 139.384 128.312 139.25 127.818 139.25C127.227 139.25 126.677 139.384 126.17 139.652C125.662 139.92 125.254 140.314 124.944 140.836C124.648 141.357 124.5 141.991 124.5 142.738ZM135.266 142.738C135.266 141.751 135.484 140.878 135.921 140.117C136.372 139.356 136.978 138.757 137.739 138.32C138.5 137.883 139.352 137.665 140.296 137.665C141.255 137.665 142.107 137.883 142.854 138.32C143.615 138.757 144.214 139.356 144.651 140.117C145.102 140.878 145.327 141.751 145.327 142.738C145.327 143.71 145.102 144.584 144.651 145.359C144.214 146.12 143.615 146.719 142.854 147.156C142.107 147.593 141.255 147.811 140.296 147.811C139.352 147.811 138.5 147.593 137.739 147.156C136.978 146.719 136.372 146.12 135.921 145.359C135.484 144.584 135.266 143.71 135.266 142.738ZM136.978 142.738C136.978 143.414 137.119 144.013 137.4 144.535C137.696 145.056 138.091 145.472 138.584 145.782C139.091 146.078 139.662 146.226 140.296 146.226C140.93 146.226 141.494 146.078 141.987 145.782C142.495 145.472 142.889 145.056 143.171 144.535C143.467 144.013 143.615 143.414 143.615 142.738C143.615 142.061 143.467 141.463 143.171 140.941C142.889 140.406 142.495 139.99 141.987 139.694C141.494 139.398 140.93 139.25 140.296 139.25C139.662 139.25 139.091 139.398 138.584 139.694C138.091 139.99 137.696 140.406 137.4 140.941C137.119 141.463 136.978 142.061 136.978 142.738ZM148.475 144.619C148.672 144.915 148.897 145.19 149.151 145.444C149.405 145.697 149.693 145.902 150.018 146.057C150.356 146.197 150.722 146.268 151.117 146.268C151.596 146.268 151.969 146.162 152.237 145.951C152.519 145.725 152.66 145.422 152.66 145.042C152.66 144.704 152.547 144.422 152.322 144.196C152.11 143.957 151.835 143.76 151.497 143.605C151.159 143.435 150.8 143.28 150.419 143.14C149.996 142.97 149.567 142.773 149.13 142.548C148.707 142.308 148.348 142.005 148.052 141.639C147.77 141.258 147.629 140.786 147.629 140.223C147.629 139.645 147.777 139.166 148.073 138.785C148.383 138.405 148.778 138.123 149.257 137.94C149.75 137.756 150.257 137.665 150.779 137.665C151.3 137.665 151.786 137.749 152.237 137.918C152.702 138.088 153.111 138.313 153.463 138.595C153.815 138.877 154.09 139.201 154.287 139.567L152.935 140.434C152.667 140.067 152.329 139.765 151.92 139.525C151.525 139.285 151.074 139.166 150.567 139.166C150.215 139.166 149.912 139.243 149.658 139.398C149.405 139.553 149.278 139.793 149.278 140.117C149.278 140.37 149.376 140.596 149.574 140.793C149.771 140.991 150.025 141.167 150.335 141.322C150.645 141.477 150.969 141.625 151.307 141.766C151.871 141.991 152.385 142.238 152.85 142.505C153.315 142.759 153.681 143.069 153.949 143.435C154.231 143.802 154.372 144.274 154.372 144.852C154.372 145.697 154.062 146.402 153.442 146.965C152.836 147.529 152.033 147.811 151.032 147.811C150.384 147.811 149.799 147.698 149.278 147.473C148.756 147.233 148.312 146.93 147.946 146.564C147.594 146.197 147.326 145.824 147.143 145.444L148.475 144.619ZM165.303 143.161L165.937 141.47H172.49L173.124 143.161H165.303ZM169.171 136.143L166.677 142.019L166.508 142.4L164.309 147.6H162.301L169.171 132.063L176.041 147.6H174.033L171.877 142.527L171.708 142.104L169.171 136.143ZM178.56 144.619C178.757 144.915 178.982 145.19 179.236 145.444C179.49 145.697 179.779 145.902 180.103 146.057C180.441 146.197 180.807 146.268 181.202 146.268C181.681 146.268 182.054 146.162 182.322 145.951C182.604 145.725 182.745 145.422 182.745 145.042C182.745 144.704 182.632 144.422 182.407 144.196C182.195 143.957 181.921 143.76 181.582 143.605C181.244 143.435 180.885 143.28 180.504 143.14C180.082 142.97 179.652 142.773 179.215 142.548C178.792 142.308 178.433 142.005 178.137 141.639C177.855 141.258 177.714 140.786 177.714 140.223C177.714 139.645 177.862 139.166 178.158 138.785C178.468 138.405 178.863 138.123 179.342 137.94C179.835 137.756 180.342 137.665 180.864 137.665C181.385 137.665 181.871 137.749 182.322 137.918C182.787 138.088 183.196 138.313 183.548 138.595C183.9 138.877 184.175 139.201 184.373 139.567L183.02 140.434C182.752 140.067 182.414 139.765 182.005 139.525C181.611 139.285 181.16 139.166 180.652 139.166C180.3 139.166 179.997 139.243 179.743 139.398C179.49 139.553 179.363 139.793 179.363 140.117C179.363 140.37 179.462 140.596 179.659 140.793C179.856 140.991 180.11 141.167 180.42 141.322C180.73 141.477 181.054 141.625 181.392 141.766C181.956 141.991 182.47 142.238 182.935 142.505C183.4 142.759 183.767 143.069 184.034 143.435C184.316 143.802 184.457 144.274 184.457 144.852C184.457 145.697 184.147 146.402 183.527 146.965C182.921 147.529 182.118 147.811 181.117 147.811C180.469 147.811 179.884 147.698 179.363 147.473C178.841 147.233 178.398 146.93 178.031 146.564C177.679 146.197 177.411 145.824 177.228 145.444L178.56 144.619ZM187.508 144.619C187.705 144.915 187.93 145.19 188.184 145.444C188.438 145.697 188.727 145.902 189.051 146.057C189.389 146.197 189.755 146.268 190.15 146.268C190.629 146.268 191.002 146.162 191.27 145.951C191.552 145.725 191.693 145.422 191.693 145.042C191.693 144.704 191.58 144.422 191.355 144.196C191.143 143.957 190.869 143.76 190.53 143.605C190.192 143.435 189.833 143.28 189.452 143.14C189.03 142.97 188.6 142.773 188.163 142.548C187.74 142.308 187.381 142.005 187.085 141.639C186.803 141.258 186.662 140.786 186.662 140.223C186.662 139.645 186.81 139.166 187.106 138.785C187.416 138.405 187.811 138.123 188.29 137.94C188.783 137.756 189.29 137.665 189.812 137.665C190.333 137.665 190.819 137.749 191.27 137.918C191.735 138.088 192.144 138.313 192.496 138.595C192.849 138.877 193.123 139.201 193.321 139.567L191.968 140.434C191.7 140.067 191.362 139.765 190.953 139.525C190.559 139.285 190.108 139.166 189.6 139.166C189.248 139.166 188.945 139.243 188.691 139.398C188.438 139.553 188.311 139.793 188.311 140.117C188.311 140.37 188.41 140.596 188.607 140.793C188.804 140.991 189.058 141.167 189.368 141.322C189.678 141.477 190.002 141.625 190.34 141.766C190.904 141.991 191.418 142.238 191.883 142.505C192.348 142.759 192.715 143.069 192.982 143.435C193.264 143.802 193.405 144.274 193.405 144.852C193.405 145.697 193.095 146.402 192.475 146.965C191.869 147.529 191.066 147.811 190.065 147.811C189.417 147.811 188.832 147.698 188.311 147.473C187.79 147.233 187.346 146.93 186.979 146.564C186.627 146.197 186.359 145.824 186.176 145.444L187.508 144.619ZM195.209 142.738C195.209 141.751 195.427 140.878 195.864 140.117C196.315 139.356 196.921 138.757 197.682 138.32C198.443 137.883 199.295 137.665 200.239 137.665C201.198 137.665 202.05 137.883 202.797 138.32C203.558 138.757 204.157 139.356 204.594 140.117C205.045 140.878 205.27 141.751 205.27 142.738C205.27 143.71 205.045 144.584 204.594 145.359C204.157 146.12 203.558 146.719 202.797 147.156C202.05 147.593 201.198 147.811 200.239 147.811C199.295 147.811 198.443 147.593 197.682 147.156C196.921 146.719 196.315 146.12 195.864 145.359C195.427 144.584 195.209 143.71 195.209 142.738ZM196.921 142.738C196.921 143.414 197.062 144.013 197.344 144.535C197.64 145.056 198.034 145.472 198.527 145.782C199.035 146.078 199.605 146.226 200.239 146.226C200.874 146.226 201.437 146.078 201.93 145.782C202.438 145.472 202.832 145.056 203.114 144.535C203.41 144.013 203.558 143.414 203.558 142.738C203.558 142.061 203.41 141.463 203.114 140.941C202.832 140.406 202.438 139.99 201.93 139.694C201.437 139.398 200.874 139.25 200.239 139.25C199.605 139.25 199.035 139.398 198.527 139.694C198.034 139.99 197.64 140.406 197.344 140.941C197.062 141.463 196.921 142.061 196.921 142.738ZM208.777 142.738C208.777 143.414 208.918 144.013 209.2 144.535C209.496 145.056 209.89 145.472 210.383 145.782C210.891 146.078 211.461 146.226 212.096 146.226C212.617 146.226 213.103 146.148 213.554 145.993C214.019 145.824 214.421 145.606 214.759 145.338C215.097 145.056 215.337 144.76 215.478 144.45V146.564C215.139 146.958 214.653 147.268 214.019 147.494C213.399 147.705 212.758 147.811 212.096 147.811C211.151 147.811 210.299 147.593 209.538 147.156C208.777 146.719 208.171 146.12 207.72 145.359C207.283 144.584 207.065 143.71 207.065 142.738C207.065 141.751 207.283 140.878 207.72 140.117C208.171 139.356 208.777 138.757 209.538 138.32C210.299 137.883 211.151 137.665 212.096 137.665C212.758 137.665 213.399 137.778 214.019 138.003C214.653 138.214 215.139 138.517 215.478 138.912V141.026C215.337 140.702 215.097 140.406 214.759 140.138C214.421 139.87 214.019 139.659 213.554 139.504C213.103 139.335 212.617 139.25 212.096 139.25C211.461 139.25 210.891 139.398 210.383 139.694C209.89 139.99 209.496 140.406 209.2 140.941C208.918 141.463 208.777 142.061 208.777 142.738ZM218.533 133.86C218.533 133.536 218.646 133.261 218.871 133.036C219.111 132.81 219.385 132.697 219.696 132.697C220.02 132.697 220.294 132.81 220.52 133.036C220.745 133.261 220.858 133.536 220.858 133.86C220.858 134.17 220.745 134.445 220.52 134.684C220.294 134.91 220.02 135.023 219.696 135.023C219.385 135.023 219.111 134.91 218.871 134.684C218.646 134.445 218.533 134.17 218.533 133.86ZM218.85 137.876H220.541V147.6H218.85V137.876ZM225.208 144.598C225.208 144.964 225.292 145.281 225.461 145.549C225.644 145.817 225.891 146.021 226.201 146.162C226.525 146.289 226.892 146.352 227.3 146.352C227.822 146.352 228.287 146.247 228.695 146.035C229.118 145.824 229.449 145.528 229.689 145.148C229.942 144.753 230.069 144.302 230.069 143.795L230.407 145.063C230.407 145.683 230.217 146.197 229.837 146.606C229.47 147.015 229.012 147.318 228.463 147.515C227.927 147.712 227.392 147.811 226.856 147.811C226.264 147.811 225.708 147.691 225.186 147.452C224.679 147.198 224.27 146.839 223.96 146.374C223.65 145.909 223.495 145.345 223.495 144.683C223.495 143.738 223.827 142.985 224.489 142.421C225.165 141.843 226.102 141.554 227.3 141.554C228.005 141.554 228.59 141.639 229.055 141.808C229.534 141.963 229.914 142.146 230.196 142.357C230.478 142.555 230.668 142.717 230.767 142.844V143.837C230.274 143.499 229.766 143.259 229.245 143.118C228.723 142.963 228.167 142.886 227.575 142.886C227.025 142.886 226.574 142.956 226.222 143.097C225.884 143.238 225.63 143.435 225.461 143.689C225.292 143.943 225.208 144.246 225.208 144.598ZM224.954 140.117L224.13 138.87C224.496 138.602 224.996 138.334 225.63 138.066C226.279 137.799 227.054 137.665 227.955 137.665C228.716 137.665 229.379 137.785 229.942 138.024C230.52 138.25 230.964 138.581 231.274 139.018C231.598 139.454 231.76 139.99 231.76 140.624V147.6H230.069V140.857C230.069 140.518 230.013 140.244 229.9 140.032C229.787 139.807 229.625 139.631 229.414 139.504C229.217 139.377 228.984 139.285 228.716 139.229C228.449 139.173 228.167 139.144 227.871 139.144C227.392 139.144 226.955 139.201 226.56 139.314C226.18 139.426 225.856 139.56 225.588 139.715C225.32 139.87 225.109 140.004 224.954 140.117ZM242.339 131.112H244.03V147.6H242.339V131.112ZM234.201 142.738C234.201 141.681 234.419 140.779 234.856 140.032C235.293 139.271 235.877 138.686 236.61 138.278C237.343 137.869 238.146 137.665 239.02 137.665C239.837 137.665 240.549 137.869 241.155 138.278C241.761 138.686 242.233 139.271 242.571 140.032C242.923 140.779 243.1 141.681 243.1 142.738C243.1 143.781 242.923 144.683 242.571 145.444C242.233 146.205 241.761 146.789 241.155 147.198C240.549 147.607 239.837 147.811 239.02 147.811C238.146 147.811 237.343 147.607 236.61 147.198C235.877 146.789 235.293 146.205 234.856 145.444C234.419 144.683 234.201 143.781 234.201 142.738ZM235.913 142.738C235.913 143.485 236.061 144.119 236.357 144.64C236.667 145.162 237.075 145.556 237.583 145.824C238.09 146.092 238.639 146.226 239.231 146.226C239.725 146.226 240.211 146.092 240.69 145.824C241.169 145.556 241.564 145.162 241.874 144.64C242.184 144.119 242.339 143.485 242.339 142.738C242.339 141.991 242.184 141.357 241.874 140.836C241.564 140.314 241.169 139.92 240.69 139.652C240.211 139.384 239.725 139.25 239.231 139.25C238.639 139.25 238.09 139.384 237.583 139.652C237.075 139.92 236.667 140.314 236.357 140.836C236.061 141.357 235.913 141.991 235.913 142.738ZM246.678 142.738C246.678 141.751 246.897 140.878 247.334 140.117C247.785 139.356 248.391 138.757 249.152 138.32C249.913 137.883 250.765 137.665 251.709 137.665C252.668 137.665 253.52 137.883 254.267 138.32C255.028 138.757 255.627 139.356 256.064 140.117C256.515 140.878 256.74 141.751 256.74 142.738C256.74 143.71 256.515 144.584 256.064 145.359C255.627 146.12 255.028 146.719 254.267 147.156C253.52 147.593 252.668 147.811 251.709 147.811C250.765 147.811 249.913 147.593 249.152 147.156C248.391 146.719 247.785 146.12 247.334 145.359C246.897 144.584 246.678 143.71 246.678 142.738ZM248.391 142.738C248.391 143.414 248.532 144.013 248.813 144.535C249.109 145.056 249.504 145.472 249.997 145.782C250.504 146.078 251.075 146.226 251.709 146.226C252.343 146.226 252.907 146.078 253.4 145.782C253.908 145.472 254.302 145.056 254.584 144.535C254.88 144.013 255.028 143.414 255.028 142.738C255.028 142.061 254.88 141.463 254.584 140.941C254.302 140.406 253.908 139.99 253.4 139.694C252.907 139.398 252.343 139.25 251.709 139.25C251.075 139.25 250.504 139.398 249.997 139.694C249.504 139.99 249.109 140.406 248.813 140.941C248.532 141.463 248.391 142.061 248.391 142.738ZM259.887 144.619C260.085 144.915 260.31 145.19 260.564 145.444C260.818 145.697 261.106 145.902 261.431 146.057C261.769 146.197 262.135 146.268 262.53 146.268C263.009 146.268 263.382 146.162 263.65 145.951C263.932 145.725 264.073 145.422 264.073 145.042C264.073 144.704 263.96 144.422 263.735 144.196C263.523 143.957 263.248 143.76 262.91 143.605C262.572 143.435 262.213 143.28 261.832 143.14C261.409 142.97 260.98 142.773 260.543 142.548C260.12 142.308 259.761 142.005 259.465 141.639C259.183 141.258 259.042 140.786 259.042 140.223C259.042 139.645 259.19 139.166 259.486 138.785C259.796 138.405 260.19 138.123 260.67 137.94C261.163 137.756 261.67 137.665 262.191 137.665C262.713 137.665 263.199 137.749 263.65 137.918C264.115 138.088 264.524 138.313 264.876 138.595C265.228 138.877 265.503 139.201 265.7 139.567L264.348 140.434C264.08 140.067 263.742 139.765 263.333 139.525C262.938 139.285 262.487 139.166 261.98 139.166C261.628 139.166 261.325 139.243 261.071 139.398C260.818 139.553 260.691 139.793 260.691 140.117C260.691 140.37 260.789 140.596 260.987 140.793C261.184 140.991 261.438 141.167 261.748 141.322C262.058 141.477 262.382 141.625 262.72 141.766C263.284 141.991 263.798 142.238 264.263 142.505C264.728 142.759 265.094 143.069 265.362 143.435C265.644 143.802 265.785 144.274 265.785 144.852C265.785 145.697 265.475 146.402 264.855 146.965C264.249 147.529 263.446 147.811 262.445 147.811C261.797 147.811 261.212 147.698 260.691 147.473C260.169 147.233 259.725 146.93 259.359 146.564C259.007 146.197 258.739 145.824 258.556 145.444L259.887 144.619Z" fill="#888681"/>
</svg>
