<svg width="40" height="40" viewBox="0 0 40 40" fill="none" xmlns="http://www.w3.org/2000/svg">
<path d="M33.3333 25.8333C31.3333 25.8333 29.1667 25.5 27.3333 24.8333C27.1667 24.8333 27 24.8333 26.8333 24.8333C26.3333 24.8333 26 25 25.6667 25.3333L22 29C17.3333 26.5 13.3333 22.6667 11 18L14.6667 14.3333C15.1667 13.8333 15.3333 13.1667 15 12.6667C14.5 10.8333 14.1667 8.66667 14.1667 6.66667C14.1667 5.83333 13.3333 5 12.5 5H6.66667C5.83333 5 5 5.83333 5 6.66667C5 22.3333 17.6667 35 33.3333 35C34.1667 35 35 34.1667 35 33.3333V27.5C35 26.6667 34.1667 25.8333 33.3333 25.8333ZM8.33333 8.33333H10.8333C11 9.83333 11.3333 11.3333 11.6667 12.6667L9.66667 14.6667C9 12.6667 8.5 10.5 8.33333 8.33333ZM31.6667 31.6667C29.5 31.5 27.3333 31 25.3333 30.3333L27.3333 28.3333C28.6667 28.6667 30.1667 29 31.6667 29V31.6667Z" fill="#CBC7BA"/>
</svg>
