<svg width="32" height="33" viewBox="0 0 32 33" fill="none" xmlns="http://www.w3.org/2000/svg">
<path d="M31.3307 8.2608C31.1499 7.57876 30.7934 6.95627 30.2968 6.45566C29.8003 5.95505 29.1811 5.59388 28.5013 5.40834C26.0067 4.73395 16 4.73395 16 4.73395C16 4.73395 5.99333 4.73395 3.49733 5.40834C2.81788 5.59421 2.19906 5.95551 1.70277 6.45608C1.20648 6.95666 0.850122 7.57898 0.669333 8.2608C0 10.7767 0 16.0249 0 16.0249C0 16.0249 0 21.2731 0.669333 23.7891C0.850115 24.4711 1.20663 25.0936 1.70319 25.5942C2.19974 26.0948 2.8189 26.4559 3.49867 26.6415C5.99333 27.3159 16 27.3159 16 27.3159C16 27.3159 26.0067 27.3159 28.5027 26.6415C29.1825 26.4561 29.8017 26.095 30.2983 25.5944C30.7949 25.0937 31.1513 24.4711 31.332 23.7891C32 21.2731 32 16.0249 32 16.0249C32 16.0249 32 10.7767 31.3307 8.2608ZM12.7267 20.7897V11.2602L21.0907 16.0249L12.7267 20.7897Z" fill="#3A161D"/>
</svg>
