<svg width="32" height="33" viewBox="0 0 32 33" fill="none" xmlns="http://www.w3.org/2000/svg">
<path d="M31.3307 8.9663C31.1499 8.28427 30.7934 7.66177 30.2968 7.16116C29.8003 6.66055 29.1811 6.29939 28.5013 6.11385C26.0067 5.43945 16 5.43945 16 5.43945C16 5.43945 5.99333 5.43945 3.49733 6.11385C2.81788 6.29972 2.19906 6.66101 1.70277 7.16158C1.20648 7.66217 0.850122 8.28449 0.669333 8.9663C0 11.4822 0 16.7304 0 16.7304C0 16.7304 0 21.9786 0.669333 24.4946C0.850115 25.1766 1.20663 25.7991 1.70319 26.2997C2.19974 26.8003 2.8189 27.1614 3.49867 27.347C5.99333 28.0214 16 28.0214 16 28.0214C16 28.0214 26.0067 28.0214 28.5027 27.347C29.1825 27.1616 29.8017 26.8005 30.2983 26.2999C30.7949 25.7992 31.1513 25.1766 31.332 24.4946C32 21.9786 32 16.7304 32 16.7304C32 16.7304 32 11.4822 31.3307 8.9663ZM12.7267 21.4952V11.9657L21.0907 16.7304L12.7267 21.4952Z" fill="white"/>
</svg>
